<svg width="46" height="46" viewBox="0 0 46 46" fill="none" xmlns="http://www.w3.org/2000/svg">
<path d="M36.0687 7.1875H9.93133C9.20391 7.18845 8.50656 7.47784 7.9922 7.9922C7.47784 8.50656 7.18845 9.20391 7.1875 9.93133V36.0687C7.18845 36.7961 7.47784 37.4934 7.9922 38.0078C8.50656 38.5222 9.20391 38.8115 9.93133 38.8125H36.0687C36.7961 38.8115 37.4934 38.5222 38.0078 38.0078C38.5222 37.4934 38.8115 36.7961 38.8125 36.0687V9.93133C38.8115 9.20391 38.5222 8.50656 38.0078 7.9922C37.4934 7.47784 36.7961 7.18845 36.0687 7.1875ZM35.9375 35.9375H10.0625V10.0625H35.9375V35.9375Z" fill="#343330"/>
</svg>
