<svg width="46" height="46" viewBox="0 0 46 46" fill="none" xmlns="http://www.w3.org/2000/svg">
<path d="M31.2045 17.6705C31.3382 17.804 31.4442 17.9625 31.5166 18.137C31.5889 18.3115 31.6261 18.4986 31.6261 18.6875C31.6261 18.8764 31.5889 19.0635 31.5166 19.238C31.4442 19.4125 31.3382 19.571 31.2045 19.7045L21.142 29.767C21.0085 29.9007 20.85 30.0067 20.6755 30.0791C20.501 30.1514 20.3139 30.1886 20.125 30.1886C19.9361 30.1886 19.749 30.1514 19.5745 30.0791C19.4 30.0067 19.2415 29.9007 19.108 29.767L14.7955 25.4545C14.5257 25.1848 14.3742 24.819 14.3742 24.4375C14.3742 24.056 14.5257 23.6902 14.7955 23.4205C15.0652 23.1507 15.431 22.9992 15.8125 22.9992C16.194 22.9992 16.5598 23.1507 16.8295 23.4205L20.125 26.7177L29.1705 17.6705C29.304 17.5368 29.4625 17.4308 29.637 17.3584C29.8115 17.2861 29.9986 17.2489 30.1875 17.2489C30.3764 17.2489 30.5635 17.2861 30.738 17.3584C30.9125 17.4308 31.071 17.5368 31.2045 17.6705ZM40.25 8.625V37.375C40.25 38.1375 39.9471 38.8688 39.4079 39.4079C38.8688 39.9471 38.1375 40.25 37.375 40.25H8.625C7.8625 40.25 7.13123 39.9471 6.59207 39.4079C6.0529 38.8688 5.75 38.1375 5.75 37.375V8.625C5.75 7.8625 6.0529 7.13123 6.59207 6.59207C7.13123 6.0529 7.8625 5.75 8.625 5.75H37.375C38.1375 5.75 38.8688 6.0529 39.4079 6.59207C39.9471 7.13123 40.25 7.8625 40.25 8.625ZM37.375 37.375V8.625H8.625V37.375H37.375Z" fill="#343330"/>
</svg>
